<svg width="32" height="32" viewBox="0 0 32 32" fill="none" xmlns="http://www.w3.org/2000/svg">
<path d="M21.8947 18.6667C22.6246 18.6667 23.2281 18.4148 23.7053 17.9111C24.1825 17.4074 24.4211 16.7704 24.4211 16C24.4211 15.2296 24.1825 14.5926 23.7053 14.0889C23.2281 13.5852 22.6246 13.3333 21.8947 13.3333C21.1649 13.3333 20.5614 13.5852 20.0842 14.0889C19.607 14.5926 19.3684 15.2296 19.3684 16C19.3684 16.7704 19.607 17.4074 20.0842 17.9111C20.5614 18.4148 21.1649 18.6667 21.8947 18.6667ZM3.36842 28.4444V3.55556V28.4444ZM3.36842 32C2.44211 32 1.64884 31.6521 0.988631 30.9564C0.329544 30.2596 0 29.4222 0 28.4444V3.55556C0 2.57778 0.329544 1.74044 0.988631 1.04356C1.64884 0.347852 2.44211 0 3.36842 0H26.9474C27.8737 0 28.6669 0.347852 29.3272 1.04356C29.9862 1.74044 30.3158 2.57778 30.3158 3.55556V8H26.9474V3.55556H3.36842V28.4444H26.9474V24H30.3158V28.4444C30.3158 29.4222 29.9862 30.2596 29.3272 30.9564C28.6669 31.6521 27.8737 32 26.9474 32H3.36842ZM16.8421 24.8889C15.9158 24.8889 15.1231 24.541 14.464 23.8453C13.8038 23.1484 13.4737 22.3111 13.4737 21.3333V10.6667C13.4737 9.68889 13.8038 8.85156 14.464 8.15467C15.1231 7.45896 15.9158 7.11111 16.8421 7.11111H28.6316C29.5579 7.11111 30.3512 7.45896 31.0114 8.15467C31.6705 8.85156 32 9.68889 32 10.6667V21.3333C32 22.3111 31.6705 23.1484 31.0114 23.8453C30.3512 24.541 29.5579 24.8889 28.6316 24.8889H16.8421ZM28.6316 21.3333V10.6667H16.8421V21.3333H28.6316Z" fill="#5FB572"/>
</svg>
