<svg width="36" height="36" viewBox="0 0 36 36" fill="none" xmlns="http://www.w3.org/2000/svg">
<path d="M16.0221 23.2158C16.0397 23.3887 16.0779 23.5589 16.136 23.7227C16.1996 23.8814 16.2982 24.0236 16.4243 24.139C16.6171 24.3181 16.8362 24.4665 17.074 24.5791C17.2876 24.6797 17.5133 24.7525 17.7455 24.7957V21.3187C17.2181 21.3989 16.8061 21.5915 16.5171 21.8932C16.3447 22.0653 16.2113 22.2725 16.1259 22.5007C16.0405 22.7288 16.0051 22.9727 16.0221 23.2158Z" fill="black"/>
<path d="M20.115 28.9083C20.2081 28.7901 20.2796 28.6563 20.3259 28.5131C20.3651 28.4111 20.3888 28.3037 20.3962 28.1946V28.1862C20.4103 27.559 20.2894 27.1069 20.0264 26.801C19.8302 26.5782 19.5419 26.4059 19.1524 26.2828V29.4392C19.5232 29.3761 19.8616 29.1889 20.1122 28.9083H20.115Z" fill="black"/>
<path d="M23.014 13.377C24.9609 11.8688 27.5787 9.19971 26.4994 6.32182C25.785 4.41424 23.9506 3.38135 21.9417 3.74205C20.5095 4.00221 18.9183 5.04916 18.0007 7.14307C17.081 5.04916 15.4906 4.00221 14.0632 3.74205C12.0502 3.37994 10.2199 4.41354 9.50415 6.32182C8.42134 9.19971 11.0391 11.8688 12.986 13.377H6.63892V16.7731H29.3611V13.377H23.014ZM22.2188 5.26572C23.4844 5.0344 24.5995 5.66299 25.0517 6.86533C26.0086 9.4219 22.0078 12.3785 20.3815 13.3038C20.3514 13.3249 20.3232 13.3484 20.2971 13.3742H18.7868V11.0869C18.8515 7.25346 20.6578 5.54838 22.2188 5.26572ZM15.6178 13.3031C15.5595 13.2701 9.81142 9.90213 10.9498 6.86533C11.4005 5.66299 12.5114 5.03721 13.7834 5.26572C15.3577 5.55119 17.1886 7.27947 17.2209 11.1896V13.377H15.7029C15.6765 13.3502 15.6481 13.3255 15.6178 13.3031Z" fill="black"/>
<path d="M8.85376 32.3296H27.1477V18.3213H8.85376V32.3296ZM14.4696 27.5744C14.5399 27.4943 14.6735 27.3635 14.9717 27.3839C15.3113 27.393 15.5672 27.6068 15.6045 27.9267C15.7022 28.3261 15.9476 28.6868 16.3463 28.987C16.6788 29.2394 17.1485 29.3997 17.7462 29.4658V26.0486C16.9594 25.9579 16.2577 25.6809 15.7233 25.2351C15.1503 24.7394 14.7906 24.0418 14.7192 23.2875C14.6781 22.8624 14.7376 22.4337 14.8929 22.0359C15.047 21.6531 15.2815 21.3078 15.5806 21.0234C15.9001 20.7213 16.2789 20.4888 16.6929 20.3407C17.033 20.2157 17.3873 20.1333 17.7476 20.0953V19.6488C17.7447 19.5524 17.762 19.4564 17.7983 19.3671C17.8346 19.2777 17.8892 19.1969 17.9585 19.1299C18.0855 19.0104 18.252 18.9418 18.4263 18.9373C18.6006 18.9327 18.7705 18.9925 18.9035 19.1053C18.9832 19.1715 19.0471 19.2547 19.0906 19.3487C19.1342 19.4427 19.1562 19.5452 19.1552 19.6488V20.1719C19.7503 20.2859 20.2984 20.5731 20.7309 20.9974C21.2442 21.5022 21.5149 22.1814 21.536 23.0154C21.4559 23.4372 21.2372 23.6601 20.9419 23.696C20.6466 23.7318 20.3337 23.5652 20.2845 23.1377C20.2663 22.9335 20.2247 22.732 20.1607 22.5372C20.0981 22.3497 20.0014 22.1755 19.8752 22.0232C19.7303 21.8486 19.5613 21.6954 19.3732 21.5683C19.3043 21.5222 19.2313 21.4825 19.1552 21.4495V25.0073C19.5699 25.0933 19.9666 25.2501 20.3281 25.4707C20.6697 25.6771 20.964 25.9533 21.1915 26.2814C21.3883 26.583 21.5225 26.9211 21.5859 27.2756C21.6477 27.5901 21.6648 27.9118 21.6366 28.2311C21.5972 28.8042 21.3504 29.3498 20.9039 29.8434C20.5088 30.28 19.9195 30.5571 19.1545 30.6689V31.0865C19.1584 31.1922 19.137 31.2972 19.0919 31.3929C19.0469 31.4885 18.9797 31.572 18.8958 31.6364C18.7642 31.7374 18.6033 31.7929 18.4374 31.7946C18.2699 31.7941 18.1079 31.7349 17.9796 31.6272C17.9024 31.5607 17.8414 31.4774 17.8012 31.3837C17.7609 31.29 17.7426 31.1884 17.7476 31.0865V30.6879C16.9524 30.614 16.2527 30.3904 15.6656 30.0206C14.9625 29.5699 14.5238 28.9125 14.3663 28.0659C14.3428 27.9817 14.34 27.8931 14.3579 27.8075C14.3759 27.722 14.4142 27.642 14.4696 27.5744Z" fill="black"/>
</svg>
