<svg width="32" height="32" viewBox="0 0 32 32" fill="none" xmlns="http://www.w3.org/2000/svg">
<path d="M8.88421 13.5465C8.2386 13.5465 7.74737 13.2602 7.41053 12.6876C7.07368 12.1139 7.08772 11.5474 7.45263 10.9882L13.7263 0.796855C14.0632 0.265618 14.5404 0 15.1579 0C15.7754 0 16.2526 0.265618 16.5895 0.796855L22.8632 10.9882C23.2281 11.5474 23.2421 12.1139 22.9053 12.6876C22.5684 13.2602 22.0772 13.5465 21.4316 13.5465H8.88421ZM24.4211 32C22.3158 32 20.526 31.2663 19.0518 29.799C17.5787 28.3306 16.8421 26.5478 16.8421 24.4508C16.8421 22.3539 17.5787 20.5711 19.0518 19.1027C20.526 17.6354 22.3158 16.9017 24.4211 16.9017C26.5263 16.9017 28.3161 17.6354 29.7903 19.1027C31.2634 20.5711 32 22.3539 32 24.4508C32 26.5478 31.2634 28.3306 29.7903 29.799C28.3161 31.2663 26.5263 32 24.4211 32ZM1.68421 31.1612C1.20702 31.1612 0.807298 31.0002 0.485053 30.6781C0.161684 30.3571 0 29.9589 0 29.4836V19.4181C0 18.9428 0.161684 18.5441 0.485053 18.222C0.807298 17.901 1.20702 17.7405 1.68421 17.7405H11.7895C12.2667 17.7405 12.6669 17.901 12.9903 18.222C13.3126 18.5441 13.4737 18.9428 13.4737 19.4181V29.4836C13.4737 29.9589 13.3126 30.3571 12.9903 30.6781C12.6669 31.0002 12.2667 31.1612 11.7895 31.1612H1.68421ZM24.4211 28.6448C25.6 28.6448 26.5965 28.2394 27.4105 27.4286C28.2246 26.6177 28.6316 25.6252 28.6316 24.4508C28.6316 23.2765 28.2246 22.284 27.4105 21.4731C26.5965 20.6623 25.6 20.2569 24.4211 20.2569C23.2421 20.2569 22.2456 20.6623 21.4316 21.4731C20.6175 22.284 20.2105 23.2765 20.2105 24.4508C20.2105 25.6252 20.6175 26.6177 21.4316 27.4286C22.2456 28.2394 23.2421 28.6448 24.4211 28.6448ZM3.36842 27.806H10.1053V21.0957H3.36842V27.806ZM11.8737 10.1913H18.4421L15.1579 4.90695L11.8737 10.1913Z" fill="#5FB572"/>
</svg>
