<svg width="24" height="24" viewBox="0 0 24 24" fill="none" xmlns="http://www.w3.org/2000/svg">
<path d="M23.7812 19.2811C23.7811 19.281 23.781 19.2809 23.7809 19.2808L16.5002 12L23.7809 4.71911C23.781 4.71902 23.7811 4.71897 23.7812 4.71888C23.8595 4.64045 23.9162 4.54886 23.9525 4.45131C24.052 4.18469 23.9953 3.87283 23.7809 3.65842L20.3415 0.219058C20.1271 0.00469868 19.8153 -0.0520201 19.5487 0.0474956C19.4512 0.0838238 19.3595 0.140496 19.2811 0.218824C19.2811 0.218918 19.281 0.218965 19.2809 0.219058L12.0001 7.49997L4.71924 0.219105C4.71914 0.219011 4.71909 0.218965 4.719 0.218871C4.64058 0.140543 4.54899 0.0838706 4.45149 0.0475425C4.18477 -0.0520201 3.873 0.00474557 3.65859 0.219105L0.219185 3.65852C0.00477902 3.87292 -0.0519398 4.18473 0.0475759 4.45136C0.0839509 4.54886 0.140623 4.64055 0.218951 4.71892C0.219045 4.71897 0.219092 4.71906 0.219185 4.71916L7.50005 12L0.219185 19.2809C0.219139 19.281 0.219045 19.281 0.218998 19.2811C0.14067 19.3595 0.0839978 19.4511 0.0475759 19.5486C-0.0519867 19.8153 0.00477902 20.1271 0.219185 20.3415L3.65859 23.7809C3.87305 23.9953 4.18481 24.052 4.45149 23.9525C4.54899 23.9161 4.64063 23.8595 4.71905 23.7811C4.71909 23.781 4.71919 23.781 4.71928 23.7809L12.0001 16.5L19.2809 23.7809C19.281 23.7809 19.2811 23.781 19.2812 23.7811C19.3597 23.8595 19.4512 23.9161 19.5487 23.9525C19.8154 24.052 20.1272 23.9953 20.3416 23.7809L23.7809 20.3415C23.9953 20.1271 24.0521 19.8152 23.9526 19.5486C23.9162 19.4511 23.8595 19.3595 23.7812 19.2811Z" fill="black"/>
</svg>
