<svg width="32" height="32" viewBox="0 0 32 32" fill="none" xmlns="http://www.w3.org/2000/svg">
<g clip-path="url(#clip0_1216_4593)">
<path d="M0 17.3225V18.0873V31.5503H7.67451V29.6487L7.71025 29.6609C9.71317 30.3265 12.5666 30.9112 15.3967 31.9226L15.6111 32L15.8255 31.9434C16.7156 31.7366 19.1027 30.9949 21.9604 30.0775C24.818 29.1602 28.0806 28.0806 30.5045 27.2445C31.6666 26.8429 32.2925 25.5497 31.8654 24.3966V24.3847C31.4167 23.205 30.115 22.6847 29.0065 23.0247C28.0853 23.3071 23.7644 24.6511 20.924 25.4887C20.9523 24.6765 21.1666 23.7886 20.507 23.2717L20.4624 23.239L20.4296 23.2151C17.2371 21.3146 16.9608 21.0787 12.4722 18.6947L12.2578 18.5936L12.0314 18.6144C10.4905 18.7791 7.875 19.2067 7.67451 19.2393V17.3228L0 17.3225ZM1.53073 18.8521H6.15569V30.0207H1.53073V18.8521ZM11.954 20.1556C16.0644 22.343 16.5268 22.6767 19.563 24.4855C20.0432 24.8681 20.1716 25.3382 19.8787 25.7592C19.7199 25.9877 19.567 26.0685 19.3367 26.1074C19.1064 26.1462 18.7902 26.1123 18.4254 25.9497C17.0503 25.3151 16.3148 24.9084 14.801 24.06L14.1369 23.688L13.3835 25.0152L14.0595 25.3872C15.5773 26.2379 16.385 26.6818 17.797 27.3334V27.3453C18.3743 27.6026 18.9873 27.7142 19.5868 27.6132C19.8338 27.5715 20.0017 27.3301 20.2271 27.2084L20.2509 27.2769L20.9806 27.0626C23.8247 26.2304 28.5072 24.7764 29.4562 24.4855C29.8129 24.3761 30.2926 24.5489 30.436 24.9259C30.5775 25.3083 30.401 25.6687 30.0101 25.8038C27.6027 26.6343 24.3466 27.7107 21.4988 28.625C18.725 29.5154 16.3762 30.2321 15.6349 30.4135C12.7871 29.4255 9.95446 28.7998 8.18377 28.2113L7.67451 28.0417V20.7835L7.79959 20.7626C7.79959 20.7626 10.4118 20.3366 11.954 20.1555L11.954 20.1556Z" fill="black"/>
<path d="M22.2871 0C17.1057 0 12.8878 4.21473 12.8878 9.39214C12.8878 14.5696 17.1057 18.7843 22.2871 18.7843C27.4684 18.7843 31.6751 14.5696 31.6751 9.39214C31.6751 4.21473 27.4684 0 22.2871 0ZM22.2871 1.51849C26.6444 1.51849 30.1555 5.03821 30.1555 9.39214C30.1555 13.7461 26.6444 17.2545 22.2871 17.2545C17.9298 17.2545 14.4074 13.7461 14.4074 9.39214C14.4074 5.03821 17.9298 1.51849 22.2871 1.51849Z" fill="black"/>
<path d="M20.9607 4.83199C20.0738 3.94579 18.6079 3.95378 17.7211 4.83994C16.8342 5.72614 16.8342 7.1829 17.7211 8.0691C18.6079 8.95526 20.0738 8.96325 20.9607 8.07705C21.8475 7.19089 21.8475 5.71815 20.9607 4.83199ZM19.8781 5.91367C20.1822 6.21746 20.1822 6.69153 19.8781 6.99536C19.5741 7.29915 19.1077 7.29124 18.8036 6.98741C18.4996 6.68362 18.4993 6.22566 18.8036 5.92163C19.1076 5.61784 19.5739 5.60964 19.8781 5.91367Z" fill="black"/>
<path d="M26.8428 10.7098C25.9559 9.82359 24.4901 9.83159 23.6032 10.7177C22.7163 11.6039 22.7163 13.0607 23.6032 13.9469C24.4901 14.8331 25.948 14.8331 26.8348 13.9469C27.7217 13.0607 27.7296 11.596 26.8428 10.7098ZM25.7603 11.7915C26.0643 12.0953 26.0564 12.5614 25.7523 12.8652C25.4483 13.169 24.99 13.1692 24.6857 12.8652C24.3817 12.5614 24.3735 12.0955 24.6778 11.7915C24.9818 11.4877 25.4562 11.4876 25.7603 11.7915Z" fill="black"/>
<path d="M24.9775 5.6239L24.4371 6.16346L18.7863 11.81L18.246 12.3497L19.3266 13.4183L19.8669 12.8786L25.5178 7.23202L26.0581 6.69247L24.9775 5.6239Z" fill="black"/>
</g>
<defs>
<clipPath id="clip0_1216_4593">
<rect width="32" height="32" fill="white"/>
</clipPath>
</defs>
</svg>
