<svg width="32" height="32" viewBox="0 0 32 32" fill="none" xmlns="http://www.w3.org/2000/svg">
<path d="M1.23457 3.57822C1.08307 3.75842 1 3.98631 1 4.22174V10.736C1 10.9716 1.08318 11.1996 1.23486 11.3799C2.55711 12.9512 4.62989 13.9565 6.95237 13.9565C7.91671 13.9565 8.83124 13.7797 9.66665 13.4659V16.6087C9.66665 17.161 10.1144 17.6087 10.6666 17.6087H13.1428C13.6951 17.6087 14.1428 17.161 14.1428 16.6087V7.47826C14.1428 3.78949 10.806 1 6.95237 1C4.62984 1 2.55689 2.00541 1.23457 3.57822Z" stroke="black" stroke-width="2" stroke-miterlimit="10" stroke-linecap="round" stroke-linejoin="round"/>
<path d="M29 4.22174C29 3.98631 28.9169 3.75842 28.7654 3.57822C27.4431 2.00541 25.3701 1 23.0476 1C19.1939 1 15.8571 3.78949 15.8571 7.47826V16.6099C15.8571 17.1622 16.3048 17.6099 16.8571 17.6099H19.3333C19.8856 17.6099 20.3333 17.1622 20.3333 16.6099V13.4671C21.1687 13.7809 22.0832 13.9577 23.0476 13.9577C25.3701 13.9577 27.4431 12.9523 28.7654 11.3795C28.9169 11.1993 29 10.9714 29 10.736V4.22174Z" stroke="black" stroke-width="2" stroke-miterlimit="10" stroke-linecap="round" stroke-linejoin="round"/>
<path d="M3.23792 15.6086C2.68563 15.6086 2.23792 16.0564 2.23792 16.6086V25.1304C2.23792 28.3877 4.91902 30.9999 8.19029 30.9999H21.8093C25.0806 30.9999 27.7617 28.3877 27.7617 25.1304V16.6086C27.7617 16.0564 27.314 15.6086 26.7617 15.6086H3.23792Z" stroke="black" stroke-width="2" stroke-miterlimit="10" stroke-linecap="round" stroke-linejoin="round"/>
<path d="M16.619 19.0435C16.619 18.6284 16.3626 18.2565 15.9746 18.1088C15.5867 17.9612 15.1479 18.0686 14.8719 18.3787L10.5386 23.2482C10.2768 23.5425 10.212 23.9631 10.3733 24.3224C10.5346 24.6818 10.8918 24.913 11.2856 24.913H13.3809V27.5652C13.3809 27.9681 13.6227 28.3317 13.9943 28.4875C14.3659 28.6432 14.7947 28.5607 15.082 28.2782L20.0344 23.4087C20.3239 23.124 20.4125 22.6926 20.2587 22.3168C20.1049 21.9411 19.7392 21.6956 19.3332 21.6956H16.619V19.0435Z" stroke="black" stroke-width="2" stroke-miterlimit="10" stroke-linecap="round" stroke-linejoin="round"/>
<path d="M5.40513 6.26086C4.89256 6.26086 4.47656 6.66991 4.47656 7.17391C4.47656 7.67791 4.89256 8.08695 5.40513 8.08695C5.9177 8.08695 6.3337 7.67791 6.3337 7.17391C6.3337 6.66991 5.9177 6.26086 5.40513 6.26086Z" fill="black"/>
<path d="M24.5952 6.26086C24.0826 6.26086 23.6666 6.66991 23.6666 7.17391C23.6666 7.67791 24.0826 8.08695 24.5952 8.08695C25.1078 8.08695 25.5238 7.67791 25.5238 7.17391C25.5238 6.66991 25.1078 6.26086 24.5952 6.26086Z" fill="black"/>
</svg>
