<svg width="32" height="32" viewBox="0 0 32 32" fill="none" xmlns="http://www.w3.org/2000/svg">
<path d="M4 32C2.9 32 1.95867 31.6422 1.176 30.9266C0.392 30.2098 0 29.3486 0 28.3429V11.8857C0 11.3067 0.142 10.7581 0.426 10.24C0.708666 9.72191 1.1 9.29524 1.6 8.96L13.6 0.731429C14.3 0.24381 15.1 0 16 0C16.9 0 17.7 0.24381 18.4 0.731429L30.4 8.96C30.9 9.29524 31.292 9.72191 31.576 10.24C31.8587 10.7581 32 11.3067 32 11.8857V28.3429C32 29.3486 31.6087 30.2098 30.826 30.9266C30.042 31.6422 29.1 32 28 32H4ZM4 28.3429H28V11.8857L16 3.65714L4 11.8857V28.3429ZM12 19.2V25.6C12 25.8438 12.1 26.0571 12.3 26.24C12.5 26.4229 12.7333 26.5143 13 26.5143C13.2667 26.5143 13.5 26.4229 13.7 26.24C13.9 26.0571 14 25.8438 14 25.6V19.2C14.8333 19.2 15.5413 18.933 16.124 18.3991C16.708 17.8664 17 17.219 17 16.4571V11.8857C17 11.6419 16.9 11.4286 16.7 11.2457C16.5 11.0629 16.2667 10.9714 16 10.9714C15.7333 10.9714 15.5 11.0629 15.3 11.2457C15.1 11.4286 15 11.6419 15 11.8857V16.4571H14V11.8857C14 11.6419 13.9 11.4286 13.7 11.2457C13.5 11.0629 13.2667 10.9714 13 10.9714C12.7333 10.9714 12.5 11.0629 12.3 11.2457C12.1 11.4286 12 11.6419 12 11.8857V16.4571H11V11.8857C11 11.6419 10.9 11.4286 10.7 11.2457C10.5 11.0629 10.2667 10.9714 10 10.9714C9.73333 10.9714 9.5 11.0629 9.3 11.2457C9.1 11.4286 9 11.6419 9 11.8857V16.4571C9 17.219 9.292 17.8664 9.876 18.3991C10.4587 18.933 11.1667 19.2 12 19.2ZM21 26.5143C21.2667 26.5143 21.5 26.4229 21.7 26.24C21.9 26.0571 22 25.8438 22 25.6V12.0686C22 11.8248 21.9 11.6114 21.7 11.4286C21.5 11.2457 21.2667 11.1543 21 11.1543C20.0667 11.1543 19.3333 11.5048 18.8 12.2057C18.2667 12.9067 18 13.7143 18 14.6286V19.2C18 19.4438 18.1 19.6571 18.3 19.84C18.5 20.0229 18.7333 20.1143 19 20.1143H20V25.6C20 25.8438 20.1 26.0571 20.3 26.24C20.5 26.4229 20.7333 26.5143 21 26.5143ZM4 28.3429H28H4Z" fill="#5FB572"/>
</svg>
