<svg width="36" height="36" viewBox="0 0 36 36" fill="none" xmlns="http://www.w3.org/2000/svg">
<path d="M25.5984 13.1701L25.5998 13.1667C26.3252 11.4968 26.6996 9.69565 26.7 7.875L25.5984 13.1701ZM25.5984 13.1701C25.4066 13.6269 25.2569 13.9264 25.1108 14.1114M25.5984 13.1701L25.1108 14.1114M25.1108 14.1114C24.977 14.2808 24.871 14.325 24.75 14.325M25.1108 14.1114L24.75 14.325M24.75 14.325H23.1163M24.75 14.325H23.1163M23.1163 14.325C23.6033 11.9293 23.8724 9.49434 23.9203 7.05H25.875C26.0938 7.05 26.3036 7.13692 26.4584 7.29164C26.6131 7.44634 26.7 7.65616 26.7 7.87494L23.1163 14.325ZM23.925 5.325V3.375V3.075H23.625H9H8.7V3.375V3.9375V3.95118L8.70124 3.9648C8.7885 4.91964 9.18314 5.81922 9.82414 6.52931C9.79317 11.9739 10.975 17.3576 13.2844 22.2894C13.2845 22.2895 13.2845 22.2896 13.2846 22.2897L13.4419 22.6269L13.5227 22.8H13.7137H20.0362H20.2217L20.3046 22.6342L20.4621 22.3192L20.4621 22.3192L20.4636 22.3162C21.4378 20.3124 22.1992 18.2121 22.7356 16.05H24.75C25.5412 16.05 26.0916 15.6742 26.4802 15.2117C26.8232 14.8034 27.052 14.3121 27.2213 13.9488C27.2386 13.9116 27.2553 13.8758 27.2714 13.8415L27.2745 13.8349L27.2773 13.8283C28.0567 11.9407 28.4471 9.91533 28.425 7.87336C28.4246 7.19765 28.156 6.54971 27.6781 6.07188C27.1999 5.59366 26.5513 5.325 25.875 5.325H23.925ZM10.7151 4.8H22.2V6.1875H22.2L22.2 6.19171C22.2719 11.3164 21.2291 16.3946 19.1445 21.075H14.6055C12.5209 16.3946 11.4781 11.3164 11.55 6.19171L11.55 6.19171V6.1875V5.95125V5.82088L11.4547 5.73193L11.292 5.5801C11.0671 5.34507 10.8733 5.08285 10.7151 4.8Z" fill="black" stroke="black" stroke-width="0.6"/>
<path d="M20.2593 23.3251L20.2593 23.325H20.25H13.5V23.3249L13.4906 23.3251C12.8406 23.3454 12.2213 23.6059 11.7522 24.0563C11.2861 24.5038 11.0012 25.1071 10.9517 25.7511C10.8279 26.558 10.5492 28.0745 10.2998 29.4028C10.1866 30.0059 10.0796 30.5688 9.99648 31.0066C9.98779 31.0523 9.97936 31.0967 9.97122 31.1396C9.92817 31.3662 9.89285 31.5524 9.8683 31.6833C9.85604 31.7487 9.84635 31.8009 9.83969 31.8377L9.83168 31.883L9.82885 31.9006L9.82839 31.9041L9.70614 32.5709L9.64122 32.925H10.0012H23.7487H24.1098L24.0436 32.57L23.9199 31.9063L23.9199 31.9063L23.9194 31.9038L23.625 31.9613L23.9194 31.9038L23.9194 31.9036L23.9193 31.903L23.9188 31.9005L23.9169 31.8908L23.9094 31.8524L23.8808 31.7052C23.8561 31.5776 23.8205 31.3934 23.777 31.1674C23.6901 30.7152 23.5717 30.0955 23.4459 29.4253C23.195 28.0881 22.9163 26.5578 22.7984 25.7521C22.7491 25.1078 22.4641 24.504 21.9978 24.0563C21.5287 23.6059 20.9093 23.3454 20.2593 23.3251ZM11.7238 31.2C11.7514 31.053 11.7813 30.894 11.813 30.7259C12.0906 29.2497 12.5019 27.0632 12.6604 26.0096L12.663 25.992L12.6636 25.9743C12.6708 25.7411 12.7626 25.5186 12.922 25.3482C13.0781 25.1812 13.2887 25.0756 13.5157 25.05H20.2328C20.4577 25.0777 20.6658 25.1841 20.8199 25.3506C20.9775 25.5207 21.0681 25.7422 21.0751 25.974L21.0756 25.9919L21.0783 26.0096C21.2549 27.1833 21.7349 29.759 22.0125 31.2H11.7238Z" fill="black" stroke="black" stroke-width="0.6"/>
<path d="M16.875 25.575C16.3707 25.575 15.8776 25.7246 15.4583 26.0048C15.039 26.2849 14.7121 26.6832 14.5191 27.1492C14.3261 27.6151 14.2756 28.1278 14.374 28.6225C14.4724 29.1171 14.7153 29.5715 15.0719 29.9281C15.4285 30.2847 15.8829 30.5276 16.3775 30.626C16.8722 30.7244 17.3849 30.6739 17.8508 30.4809C18.3168 30.2879 18.7151 29.9611 18.9952 29.5417C19.2754 29.1224 19.425 28.6293 19.425 28.125C19.425 27.4487 19.1563 26.8001 18.6781 26.3219C18.1999 25.8437 17.5513 25.575 16.875 25.575ZM16.875 28.95C16.7118 28.95 16.5523 28.9016 16.4167 28.811C16.281 28.7203 16.1752 28.5915 16.1128 28.4407C16.0504 28.29 16.034 28.1241 16.0659 27.964C16.0977 27.804 16.1763 27.657 16.2916 27.5416C16.407 27.4263 16.554 27.3477 16.7141 27.3159C16.8741 27.284 17.04 27.3004 17.1907 27.3628C17.3415 27.4252 17.4703 27.531 17.561 27.6667C17.6516 27.8023 17.7 27.9618 17.7 28.125C17.7 28.3438 17.6131 28.5536 17.4584 28.7084C17.3036 28.8631 17.0938 28.95 16.875 28.95Z" fill="black" stroke="black" stroke-width="0.6"/>
<path d="M18.3 13.5V13.2H18H15.75H15.45V13.5V14.625V14.925H15.75H18H18.3V14.625V13.5Z" fill="black" stroke="black" stroke-width="0.6"/>
<path d="M18.3 16.875V16.575H18H15.75H15.45V16.875V18V18.3H15.75H18H18.3V18V16.875Z" fill="black" stroke="black" stroke-width="0.6"/>
<path d="M18.3 10.125V9.825H18H15.75H15.45V10.125V11.25V11.55H15.75H18H18.3V11.25V10.125Z" fill="black" stroke="black" stroke-width="0.6"/>
<path d="M18.3 6.75V6.45H18H15.75H15.45V6.75V7.875V8.175H15.75H18H18.3V7.875V6.75Z" fill="black" stroke="black" stroke-width="0.6"/>
</svg>
