<svg width="32" height="32" viewBox="0 0 32 32" fill="none" xmlns="http://www.w3.org/2000/svg">
<path d="M19.6978 22.3822L24.3022 17.7778H7.11111V14.2222H24.3022L19.6978 9.61778L22.2222 7.11111L31.1111 16L22.2222 24.8889L19.6978 22.3822ZM28.4444 0C29.3874 0 30.2918 0.374602 30.9586 1.0414C31.6254 1.70819 32 2.61256 32 3.55556V11.8578L28.4444 8.30222V3.55556H3.55556V28.4444H28.4444V23.6978L32 20.1422V28.4444C32 29.3874 31.6254 30.2918 30.9586 30.9586C30.2918 31.6254 29.3874 32 28.4444 32H3.55556C2.61256 32 1.70819 31.6254 1.0414 30.9586C0.374602 30.2918 0 29.3874 0 28.4444V3.55556C0 1.58222 1.58222 0 3.55556 0H28.4444Z" fill="#5FB572"/>
</svg>
