<svg width="32" height="32" viewBox="0 0 32 32" fill="none" xmlns="http://www.w3.org/2000/svg">
<path d="M25.3333 28C24.2785 28 23.2474 27.6872 22.3703 27.1012C21.4932 26.5152 20.8096 25.6822 20.406 24.7077C20.0023 23.7331 19.8967 22.6608 20.1025 21.6262C20.3083 20.5917 20.8162 19.6414 21.5621 18.8955C22.308 18.1496 23.2583 17.6416 24.2929 17.4359C25.3274 17.2301 26.3998 17.3357 27.3743 17.7394C28.3489 18.143 29.1818 18.8266 29.7678 19.7037C30.3539 20.5807 30.6667 21.6119 30.6667 22.6667C30.6667 24.0812 30.1048 25.4378 29.1046 26.4379C28.1044 27.4381 26.7478 28 25.3333 28ZM25.3333 20C24.8059 20 24.2903 20.1564 23.8518 20.4495C23.4133 20.7425 23.0715 21.159 22.8697 21.6462C22.6678 22.1335 22.615 22.6697 22.7179 23.187C22.8208 23.7042 23.0748 24.1794 23.4477 24.5523C23.8207 24.9253 24.2958 25.1792 24.8131 25.2821C25.3304 25.385 25.8666 25.3322 26.3538 25.1304C26.8411 24.9286 27.2576 24.5868 27.5506 24.1482C27.8436 23.7097 28 23.1941 28 22.6667C28 21.9595 27.7191 21.2812 27.219 20.7811C26.7189 20.281 26.0406 20 25.3333 20Z" fill="#252526"/>
<path d="M6.66665 28C5.61181 28 4.58067 27.6872 3.70361 27.1012C2.82655 26.5152 2.14296 25.6822 1.73929 24.7077C1.33562 23.7331 1.23001 22.6608 1.43579 21.6262C1.64158 20.5917 2.14953 19.6414 2.89541 18.8955C3.64129 18.1496 4.5916 17.6416 5.62617 17.4359C6.66073 17.2301 7.73309 17.3357 8.70763 17.7394C9.68217 18.143 10.5151 18.8266 11.1012 19.7037C11.6872 20.5807 12 21.6119 12 22.6667C12 24.0812 11.4381 25.4378 10.4379 26.4379C9.43769 27.4381 8.08114 28 6.66665 28ZM6.66665 20C6.13923 20 5.62366 20.1564 5.18513 20.4495C4.7466 20.7425 4.4048 21.159 4.20297 21.6462C4.00114 22.1335 3.94833 22.6697 4.05122 23.187C4.15412 23.7042 4.40809 24.1794 4.78103 24.5523C5.15397 24.9253 5.62913 25.1792 6.14641 25.2821C6.66369 25.385 7.19987 25.3322 7.68714 25.1304C8.17441 24.9286 8.59088 24.5868 8.8839 24.1482C9.17692 23.7097 9.33331 23.1941 9.33331 22.6667C9.33331 21.9595 9.05236 21.2812 8.55227 20.7811C8.05217 20.281 7.37389 20 6.66665 20Z" fill="#252526"/>
<path d="M16 24H8.00002C7.6464 24 7.30726 23.8596 7.05721 23.6095C6.80716 23.3595 6.66669 23.0203 6.66669 22.6667C6.66669 22.3131 6.80716 21.9739 7.05721 21.7239C7.30726 21.4738 7.6464 21.3334 8.00002 21.3334H16C16.3536 21.3334 16.6928 21.4738 16.9428 21.7239C17.1929 21.9739 17.3334 22.3131 17.3334 22.6667C17.3334 23.0203 17.1929 23.3595 16.9428 23.6095C16.6928 23.8596 16.3536 24 16 24Z" fill="#252526"/>
<path d="M17.3333 20H14.6666C14.4912 20.001 14.3172 19.9673 14.1548 19.901C13.9923 19.8346 13.8446 19.7369 13.72 19.6133L8.78665 14.6666H5.33332C5.15784 14.6676 4.98389 14.634 4.82144 14.5677C4.65899 14.5013 4.51124 14.4035 4.38665 14.28L3.05332 12.9466C2.80224 12.6956 2.66119 12.355 2.66119 12C2.66119 11.6449 2.80224 11.3044 3.05332 11.0533C3.30439 10.8022 3.64491 10.6612 3.99998 10.6612C4.35505 10.6612 4.69558 10.8022 4.94665 11.0533L5.87998 12H9.33332C9.50879 11.9989 9.68274 12.0326 9.84519 12.0989C10.0076 12.1653 10.1554 12.2631 10.28 12.3866L15.2133 17.3333H16.84L21.1333 13.6533C21.3748 13.4468 21.6822 13.3333 22 13.3333H26.12C26.2639 13.3299 26.401 13.2712 26.5028 13.1694C26.6046 13.0676 26.6633 12.9305 26.6666 12.7866C26.6677 12.7127 26.6541 12.6393 26.6267 12.5706C26.5992 12.502 26.5584 12.4394 26.5066 12.3866L20.3867 6.27996C20.1356 6.02889 19.9945 5.68836 19.9945 5.3333C19.9945 5.15748 20.0292 4.98339 20.0964 4.82096C20.1637 4.65853 20.2623 4.51095 20.3867 4.38663C20.511 4.26231 20.6586 4.1637 20.821 4.09642C20.9834 4.02914 21.1575 3.99451 21.3333 3.99451C21.6884 3.99451 22.0289 4.13556 22.28 4.38663L28.3867 10.5066C28.6894 10.8037 28.9292 11.1586 29.0918 11.5504C29.2545 11.9421 29.3366 12.3625 29.3333 12.7866C29.3333 13.2086 29.2502 13.6265 29.0887 14.0163C28.9272 14.4062 28.6905 14.7604 28.3922 15.0588C28.0938 15.3572 27.7395 15.5939 27.3497 15.7554C26.9598 15.9168 26.542 16 26.12 16H22.4933L18.2 19.68C17.9585 19.8865 17.6511 20 17.3333 20Z" fill="#252526"/>
<path d="M14.6667 14.6666H5.33333C4.97971 14.6666 4.64057 14.5261 4.39052 14.2761C4.14048 14.026 4 13.6869 4 13.3333C4 12.9797 4.14048 12.6405 4.39052 12.3905C4.64057 12.1404 4.97971 11.9999 5.33333 11.9999H14.12L16.3867 9.71994C16.5113 9.59637 16.659 9.4986 16.8215 9.43225C16.9839 9.36589 17.1579 9.33226 17.3333 9.33327H20C20.3536 9.33327 20.6928 9.47375 20.9428 9.7238C21.1929 9.97385 21.3333 10.313 21.3333 10.6666C21.3333 11.0202 21.1929 11.3594 20.9428 11.6094C20.6928 11.8595 20.3536 11.9999 20 11.9999H17.88L15.6133 14.2799C15.4887 14.4035 15.341 14.5013 15.1785 14.5676C15.0161 14.634 14.8421 14.6676 14.6667 14.6666Z" fill="#252526"/>
<path d="M24 8V14.6667H26.12C26.493 14.6682 26.858 14.5588 27.1686 14.3524C27.4793 14.1459 27.7215 13.8517 27.8644 13.5072C28.0074 13.1627 28.0446 12.7834 27.9714 12.4177C27.8982 12.052 27.7179 11.7163 27.4533 11.4533L24 8Z" fill="#252526"/>
</svg>
