<svg width="32" height="32" viewBox="0 0 32 32" fill="none" xmlns="http://www.w3.org/2000/svg">
<g clip-path="url(#clip0_1239_4496)">
<path d="M26 20C24.9 20 23.9 20.4 23 21H18C17.2 20.4 16.1 20 15 20C12.2 20 10 22.2 10 25C10 27.8 12.2 30 15 30C16.1 30 17.1 29.6 18 29H23C23.8 29.6 24.9 30 26 30C28.8 30 31 27.8 31 25C31 22.2 28.8 20 26 20Z" stroke="black" stroke-width="2" stroke-miterlimit="10" stroke-linecap="round" stroke-linejoin="round"/>
<path d="M15 23V27" stroke="black" stroke-width="2" stroke-miterlimit="10" stroke-linecap="round" stroke-linejoin="round"/>
<path d="M13 25H17" stroke="black" stroke-width="2" stroke-miterlimit="10" stroke-linecap="round" stroke-linejoin="round"/>
<path d="M10.7 27.6C5.1 26.1 1 21 1 15C1 7.8 6.8 2 14 2C21.2 2 27 7.8 27 15C27 16.8 26.6 18.5 26 20" stroke="black" stroke-width="2" stroke-miterlimit="10" stroke-linecap="round" stroke-linejoin="round"/>
<path d="M10 24.7C8.8 22.3 8 18.9 8 15C8 7.8 10.7 2 14 2C17.3 2 20 7.8 20 15C20 17.2 19.8 19.2 19.3 21" stroke="black" stroke-width="2" stroke-miterlimit="10" stroke-linecap="round" stroke-linejoin="round"/>
<path d="M1 15H27" stroke="black" stroke-width="2" stroke-miterlimit="10" stroke-linecap="round" stroke-linejoin="round"/>
</g>
<defs>
<clipPath id="clip0_1239_4496">
<rect width="32" height="32" fill="white"/>
</clipPath>
</defs>
</svg>
