<svg width="32" height="32" viewBox="0 0 32 32" fill="none" xmlns="http://www.w3.org/2000/svg">
<g clip-path="url(#clip0_1216_4509)">
<path d="M30.83 6.83272C30.588 6.59072 30.3167 6.40139 30.038 6.23472C30.0207 6.22006 30.0107 6.20672 29.9887 6.19072C29.2727 5.63339 27.7407 5.22606 26.398 5.87672L26.162 5.64006C27.3567 3.51672 25.4567 1.49406 25.4567 1.49406L25.454 1.51672C25.3607 1.40072 25.2767 1.28006 25.168 1.17139C23.6053 -0.391277 21.0687 -0.391277 19.5074 1.17139C17.9434 2.73406 17.9447 5.26939 19.5074 6.83339L19.802 7.12672L19.6854 7.24206L19.5627 7.36472L19.1667 7.76072L7.76002 19.1674L7.58135 19.3454L7.39668 19.5307L7.12602 19.8021L6.83202 19.5087C5.26802 17.9441 2.73335 17.9441 1.17135 19.5081C-0.392648 21.0707 -0.392648 23.6041 1.17135 25.1681C1.41202 25.4081 1.68335 25.5987 1.96335 25.7647C1.98002 25.7794 1.99002 25.7927 2.01202 25.8107C2.72735 26.3674 4.26002 26.7741 5.60268 26.1247L5.83935 26.3607C4.64335 28.4827 6.54535 30.5081 6.54535 30.5081L6.54668 30.4847C6.63935 30.6007 6.72468 30.7207 6.83268 30.8301C8.39602 32.3921 10.9307 32.3927 12.4934 30.8301C14.0567 29.2674 14.0567 26.7314 12.4934 25.1687L12.1994 24.8747L12.3154 24.7587L12.8334 24.2414L24.24 12.8334L24.418 12.6534L24.6353 12.4361L24.8727 12.1994L25.1673 12.4927C26.7313 14.0554 29.2654 14.0554 30.8287 12.4927C32.3927 10.9301 32.3927 8.39539 30.83 6.83272ZM29.584 11.2474C28.7087 12.1227 27.2893 12.1227 26.4133 11.2474C26.374 11.2074 26.3447 11.1621 26.3094 11.1201L26.3034 11.1254L24.8573 9.67939L24.0787 10.4581L23.6054 10.9307L23.368 11.1681L23.1507 11.3861L22.972 11.5647L11.5647 22.9721L11.1687 23.3687L11.046 23.4901L10.9307 23.6061L10.458 24.0787L9.68002 24.8574L11.182 26.3581C11.2027 26.3774 11.2274 26.3927 11.248 26.4141C12.1247 27.2901 12.1247 28.7081 11.248 29.5847C10.3727 30.4601 8.95402 30.4601 8.07868 29.5847C7.35468 28.8607 7.23868 27.7654 7.71402 26.9134C7.75535 26.8514 7.80002 26.7934 7.84535 26.7427L8.02135 26.5647C8.02135 26.5634 8.02735 26.5587 8.02735 26.5587L8.02668 26.5574L8.39069 26.1887L5.76469 23.6054L5.37068 24.0061C5.28668 24.0914 5.06202 24.2841 5.02335 24.3174C4.18002 24.7521 3.12602 24.6287 2.41935 23.9227C1.54402 23.0474 1.54402 21.6274 2.41935 20.7521C3.29469 19.8761 4.71402 19.8767 5.58869 20.7534C5.62868 20.7921 5.65735 20.8374 5.69268 20.8794L5.69869 20.8727L7.14535 22.3201L7.92335 21.5421L8.39602 21.0701L8.66602 20.7987L8.85135 20.6141L9.02935 20.4354L20.4367 9.02806L20.8334 8.63206L20.9554 8.50939L21.07 8.39406L21.5433 7.92139L22.3227 7.14272L20.8214 5.64206C20.8 5.62272 20.7754 5.60806 20.7534 5.58672C19.878 4.71206 19.878 3.29206 20.7534 2.41672C21.6287 1.54139 23.048 1.54139 23.924 2.41672C24.5854 3.07806 24.744 4.04939 24.406 4.86206C24.3967 4.88939 24.3773 4.91739 24.364 4.94472C24.3334 5.00672 24.3 5.06872 24.2647 5.12872C24.1713 5.26739 24.0634 5.38672 23.9847 5.46739L23.6207 5.83206L26.2034 8.41472L26.5927 8.02606C26.7047 7.91406 26.9513 7.71206 27.004 7.66939C27.8447 7.25072 28.8847 7.37739 29.584 8.07672C30.4587 8.95272 30.4587 10.3721 29.584 11.2474Z" fill="#241F20"/>
</g>
<defs>
<clipPath id="clip0_1216_4509">
<rect width="32" height="32" fill="white"/>
</clipPath>
</defs>
</svg>
