<svg width="22" height="34" viewBox="0 0 22 34" fill="none" xmlns="http://www.w3.org/2000/svg">
<path d="M20 1.03027H2C0.9 1.03027 0 1.95755 0 3.09088V31.9394C0 33.0727 0.9 34 2 34H20C21.1 34 22 33.0727 22 31.9394V3.09088C22 1.95755 21.1 1.03027 20 1.03027ZM11 32.5122C10.141 32.5122 9.444 31.7941 9.444 30.9091C9.444 30.024 10.141 29.3059 11 29.3059C11.859 29.3059 12.556 30.024 12.556 30.9091C12.556 31.7941 11.859 32.5122 11 32.5122ZM20 27.8182H2V5.15149H20V27.8182Z" fill="#5FB572"/>
<path d="M10.5267 19.78C11.4734 19.7 11.9467 19.3067 11.9467 18.6C11.9467 18.0667 11.4667 17.6467 10.5067 17.34C10.4001 17.3133 10.3467 17.36 10.3467 17.48V19.62C10.3467 19.7267 10.4067 19.78 10.5267 19.78ZM10.5867 11.62C9.53339 11.7 9.00672 12.06 9.00672 12.7C9.00672 13.26 9.45339 13.66 10.3467 13.9C10.3734 13.9133 10.4134 13.9267 10.4667 13.94C10.5334 13.9533 10.5801 13.96 10.6067 13.96C10.7001 13.9867 10.7467 13.9467 10.7467 13.84V11.78C10.7467 11.6733 10.6934 11.62 10.5867 11.62ZM13.4467 15.02C14.2734 15.4467 14.8601 15.94 15.2067 16.5C15.5667 17.06 15.7467 17.7267 15.7467 18.5C15.7467 21.1533 14.0001 22.5467 10.5067 22.68C10.4001 22.68 10.3467 22.74 10.3467 22.86V23.56C10.3467 23.8667 10.2334 24.1333 10.0067 24.36C9.78005 24.5867 9.51339 24.7 9.20672 24.7H8.88672C8.58005 24.7 8.31339 24.5867 8.08672 24.36C7.86005 24.1333 7.74672 23.8667 7.74672 23.56V22.68C7.74672 22.5733 7.68672 22.5067 7.56672 22.48C7.22005 22.4 6.96672 22.3333 6.80672 22.28C6.48672 22.1867 6.22672 22 6.02672 21.72C5.84005 21.4267 5.74672 21.1067 5.74672 20.76V19.76C5.74672 19.5067 5.86005 19.3133 6.08672 19.18C6.31339 19.0333 6.54672 19.0133 6.78672 19.12C7.12005 19.2667 7.38672 19.3667 7.58672 19.42C7.69339 19.4467 7.74672 19.4067 7.74672 19.3V16.84C7.74672 16.7733 7.76005 16.6733 7.78672 16.54C7.81339 16.42 7.78672 16.34 7.70672 16.3C6.06672 15.4333 5.24672 14.2333 5.24672 12.7C5.24672 11.5 5.70005 10.54 6.60672 9.82C7.52672 9.1 8.85339 8.72667 10.5867 8.7C10.6934 8.7 10.7467 8.64 10.7467 8.52V7.84C10.7467 7.53333 10.8601 7.26667 11.0867 7.04C11.3134 6.81333 11.5801 6.7 11.8867 6.7H12.2067C12.5134 6.7 12.7801 6.81333 13.0067 7.04C13.2334 7.26667 13.3467 7.53333 13.3467 7.84V8.72C13.3467 8.82667 13.4001 8.89333 13.5067 8.92C13.5734 8.93333 13.6734 8.95333 13.8067 8.98C13.9534 8.99333 14.0601 9.00667 14.1267 9.02C14.4601 9.08667 14.7267 9.25333 14.9267 9.52C15.1401 9.78667 15.2467 10.0933 15.2467 10.44V11.32C15.2467 11.6 15.1267 11.82 14.8867 11.98C14.6601 12.14 14.4134 12.18 14.1467 12.1C14.0667 12.0867 13.9601 12.06 13.8267 12.02C13.6934 11.98 13.5867 11.9467 13.5067 11.92C13.4001 11.8933 13.3467 11.94 13.3467 12.06V14.56C13.3467 14.6533 13.3401 14.72 13.3267 14.76C13.3001 14.8933 13.3401 14.98 13.4467 15.02Z" fill="#5FB572"/>
</svg>
