<svg width="30" height="37" viewBox="0 0 30 37" fill="none" xmlns="http://www.w3.org/2000/svg">
<path d="M22 25C20 27 20 29 18 29C16 29 14 27 12 25C10 23 8 21 8 19C8 17 10 17 12 15C14 13 8 7 6 7C4 7 0 13 0 13C0 17 4.109 25.109 8 29C11.891 32.891 20 37 24 37C24 37 30 33 30 31C30 29 24 23 22 25Z" fill="#5FB572"/>
<path d="M19.5267 19.78C20.4734 19.7 20.9467 19.3067 20.9467 18.6C20.9467 18.0667 20.4667 17.6467 19.5067 17.34C19.4001 17.3133 19.3467 17.36 19.3467 17.48V19.62C19.3467 19.7267 19.4067 19.78 19.5267 19.78ZM19.5867 11.62C18.5334 11.7 18.0067 12.06 18.0067 12.7C18.0067 13.26 18.4534 13.66 19.3467 13.9C19.3734 13.9133 19.4134 13.9267 19.4667 13.94C19.5334 13.9533 19.5801 13.96 19.6067 13.96C19.7001 13.9867 19.7467 13.9467 19.7467 13.84V11.78C19.7467 11.6733 19.6934 11.62 19.5867 11.62ZM22.4467 15.02C23.2734 15.4467 23.8601 15.94 24.2067 16.5C24.5667 17.06 24.7467 17.7267 24.7467 18.5C24.7467 21.1533 23.0001 22.5467 19.5067 22.68C19.4001 22.68 19.3467 22.74 19.3467 22.86V23.56C19.3467 23.8667 19.2334 24.1333 19.0067 24.36C18.7801 24.5867 18.5134 24.7 18.2067 24.7H17.8867C17.5801 24.7 17.3134 24.5867 17.0867 24.36C16.8601 24.1333 16.7467 23.8667 16.7467 23.56V22.68C16.7467 22.5733 16.6867 22.5067 16.5667 22.48C16.2201 22.4 15.9667 22.3333 15.8067 22.28C15.4867 22.1867 15.2267 22 15.0267 21.72C14.8401 21.4267 14.7467 21.1067 14.7467 20.76V19.76C14.7467 19.5067 14.8601 19.3133 15.0867 19.18C15.3134 19.0333 15.5467 19.0133 15.7867 19.12C16.1201 19.2667 16.3867 19.3667 16.5867 19.42C16.6934 19.4467 16.7467 19.4067 16.7467 19.3V16.84C16.7467 16.7733 16.7601 16.6733 16.7867 16.54C16.8134 16.42 16.7867 16.34 16.7067 16.3C15.0667 15.4333 14.2467 14.2333 14.2467 12.7C14.2467 11.5 14.7001 10.54 15.6067 9.82C16.5267 9.1 17.8534 8.72667 19.5867 8.7C19.6934 8.7 19.7467 8.64 19.7467 8.52V7.84C19.7467 7.53333 19.8601 7.26667 20.0867 7.04C20.3134 6.81333 20.5801 6.7 20.8867 6.7H21.2067C21.5134 6.7 21.7801 6.81333 22.0067 7.04C22.2334 7.26667 22.3467 7.53333 22.3467 7.84V8.72C22.3467 8.82667 22.4001 8.89333 22.5067 8.92C22.5734 8.93333 22.6734 8.95333 22.8067 8.98C22.9534 8.99333 23.0601 9.00667 23.1267 9.02C23.4601 9.08667 23.7267 9.25333 23.9267 9.52C24.1401 9.78667 24.2467 10.0933 24.2467 10.44V11.32C24.2467 11.6 24.1267 11.82 23.8867 11.98C23.6601 12.14 23.4134 12.18 23.1467 12.1C23.0667 12.0867 22.9601 12.06 22.8267 12.02C22.6934 11.98 22.5867 11.9467 22.5067 11.92C22.4001 11.8933 22.3467 11.94 22.3467 12.06V14.56C22.3467 14.6533 22.3401 14.72 22.3267 14.76C22.3001 14.8933 22.3401 14.98 22.4467 15.02Z" fill="#5FB572"/>
</svg>
