<svg width="32" height="32" viewBox="0 0 32 32" fill="none" xmlns="http://www.w3.org/2000/svg">
<path d="M3.47364 0V0.752453V3.04832H0V24.3718H13.4959H13.6428C14.3782 28.6904 18.1782 32 22.754 32C27.8548 32 32 27.8916 32 22.8521C32 17.8125 27.8548 13.716 22.754 13.716C22.6234 13.716 22.4966 13.7314 22.3673 13.7367V13.716V3.04832H18.8937V0H14.2692V0.752453V3.04832H8.09814V0H3.47364ZM5.01115 1.51972H6.56065V3.04832H5.01115V1.51972ZM15.8067 1.51972H17.3562V3.04832H15.8067V1.51972ZM1.53751 4.55619H20.8298V7.61637H20.3743H1.99307H1.53751V4.55619ZM3.86026 11.3964H10.0223V15.2357V20.6006H3.86026V19.0839H8.48478V16.7525H6.17102H5.39777V15.2357H6.17102H8.48478V12.9043H3.86026V11.3964ZM12.345 11.432H18.5041V14.7469L18.4981 14.7528C17.9547 15.0304 17.4429 15.3591 16.9696 15.7334V15.2357V12.9517H13.8826V19.0483H14.2692H14.3531C14.1277 19.5337 13.9478 20.0408 13.8106 20.568H12.3451L12.345 11.432ZM22.754 15.2357C27.0253 15.2357 30.4745 18.632 30.4745 22.8521C30.4745 27.0721 27.0253 30.4803 22.754 30.4803C18.4826 30.4803 15.0334 27.0721 15.0334 22.8521C15.0334 18.632 18.4826 15.2356 22.754 15.2357Z" fill="black"/>
<path d="M21.9807 17.0992V17.8399V18.6131H19.4631V23.5899H24.4863V25.5955H20.2514H19.4631V27.0974H20.2514H21.9807V27.8705V28.626H23.5272V27.8705V27.0974H26.0478V22.1058H21.0246V20.115H25.2595H26.0478V18.6131H25.2595H23.5272V17.8399V17.0992H21.9807Z" fill="black"/>
</svg>
