<svg width="32" height="32" viewBox="0 0 32 32" fill="none" xmlns="http://www.w3.org/2000/svg">
<g clip-path="url(#clip0_1239_4489)">
<path d="M15.3517 4.68498L15.3517 4.68494C15.518 4.51877 15.7417 4.42283 15.9766 4.41688L15.9798 4.41676L15.9886 4.6666L15.9843 4.41664C16.1073 4.41452 16.2295 4.43718 16.3435 4.48328C16.4576 4.52938 16.5612 4.59797 16.6482 4.68497L16.6482 4.68498L21.9817 10.0185L24.6483 12.6852C24.6483 12.6852 24.6483 12.6852 24.6483 12.6852C24.7334 12.7703 24.801 12.8714 24.847 12.9826C24.8931 13.0938 24.9168 13.2131 24.9168 13.3335C24.9168 13.4539 24.8931 13.5731 24.847 13.6844C24.801 13.7956 24.7334 13.8967 24.6483 13.9818L15.3517 4.68498ZM15.3517 4.68498L4.68503 15.3518L15.3517 4.68498ZM13.9816 24.6486L24.6483 13.9818L4.68501 15.3519C4.59987 15.437 4.53233 15.5381 4.48625 15.6493C4.44016 15.7605 4.41644 15.8798 4.41644 16.0002C4.41644 16.1206 4.44016 16.2398 4.48625 16.351C4.53233 16.4623 4.59988 16.5634 4.68503 16.6485L10.0184 21.982L12.685 24.6486C12.685 24.6486 12.685 24.6487 12.685 24.6487C12.7702 24.7338 12.8712 24.8013 12.9825 24.8474C13.0937 24.8935 13.2129 24.9172 13.3333 24.9172C13.4537 24.9172 13.573 24.8935 13.6842 24.8474C13.7954 24.8013 13.8965 24.7338 13.9816 24.6487C13.9816 24.6487 13.9816 24.6486 13.9816 24.6486ZM6.62953 15.9998L15.9996 6.62954L20.037 10.6666L10.6666 20.0372L6.62953 15.9998ZM11.963 21.334L21.3337 11.9631L22.7038 13.3332L13.333 22.7041L11.963 21.334Z" fill="#252526" stroke="#252526" stroke-width="0.5"/>
<path d="M20.0181 0.0184195L20.0182 0.0183834C20.1848 -0.148206 20.4092 -0.244224 20.6448 -0.249741L20.0181 0.0184195ZM20.0181 0.0184195L17.3515 2.68512L17.5282 2.86191L17.3515 2.68514C17.2663 2.77027 17.1988 2.87133 17.1527 2.98256C17.1066 3.0938 17.0829 3.21303 17.0829 3.33344C17.0829 3.45385 17.1066 3.57308 17.1527 3.68432C17.1988 3.79555 17.2663 3.89661 17.3515 3.98173L20.0181 0.0184195ZM21.3147 0.0183863L21.3147 0.0184194L29.3147 8.01856C29.3998 8.10369 29.4674 8.20477 29.5135 8.316C29.5595 8.42724 29.5833 8.54647 29.5833 8.66688C29.5833 8.7873 29.5595 8.90653 29.5135 9.01776C29.4674 9.12899 29.3998 9.23005 29.3147 9.31518L29.3147 9.3152M21.3147 0.0183863L29.3147 9.3152M21.3147 0.0183863C21.2269 -0.0692968 21.1224 -0.13827 21.0072 -0.184357C20.8921 -0.23043 20.7688 -0.252674 20.6449 -0.249744L21.3147 0.0183863ZM29.3147 9.3152L26.6481 11.9819M29.3147 9.3152L26.6481 11.9819M26.6481 11.9819C26.648 11.9819 26.648 11.9819 26.648 11.9819C26.5629 12.067 26.4618 12.1346 26.3506 12.1807C26.2394 12.2268 26.1201 12.2505 25.9997 12.2505C25.8793 12.2505 25.7601 12.2268 25.6489 12.1807C25.5376 12.1346 25.4366 12.067 25.3514 11.9819L25.3514 11.9819M26.6481 11.9819L25.5282 11.8051L25.3514 11.9819M25.3514 11.9819L17.3515 3.98176L25.3514 11.9819ZM19.296 3.33375L20.6667 1.96301L27.3701 8.66658L25.9994 10.0373L19.296 3.33375Z" fill="#252526" stroke="#252526" stroke-width="0.5"/>
<path d="M3.3116 17.0835C3.11094 17.0883 2.9174 17.1589 2.7607 17.2843C2.60398 17.4097 2.49276 17.5831 2.44412 17.7779C2.44412 17.7779 2.44411 17.7779 2.4441 17.778L-0.222662 28.4448L-0.222676 28.4448C-0.26103 28.5984 -0.258975 28.7592 -0.216711 28.9118C-0.174448 29.0643 -0.0934148 29.2033 0.0185002 29.3152C0.130417 29.4271 0.269401 29.5082 0.421925 29.5504C0.574449 29.5927 0.735319 29.5947 0.888875 29.5564L0.888929 29.5564L11.5555 26.8896C11.5555 26.8895 11.5556 26.8895 11.5556 26.8895C11.713 26.8502 11.8571 26.7699 11.9733 26.6567C12.0895 26.5434 12.1736 26.4014 12.2169 26.245C12.2603 26.0887 12.2614 25.9236 12.22 25.7667C12.1787 25.6098 12.0965 25.4666 11.9818 25.3519L11.9818 25.3519L3.98175 17.3517L3.98172 17.3516C3.81255 17.1825 3.58399 17.0862 3.34482 17.0833L3.34459 17.0833C3.33359 17.0832 3.32259 17.0833 3.3116 17.0835ZM3.3116 17.0835C3.31164 17.0835 3.31168 17.0835 3.31173 17.0835L3.31767 17.3333L3.31147 17.0835C3.31151 17.0835 3.31156 17.0835 3.3116 17.0835ZM2.88199 23.5859L3.83021 19.7935L9.54001 25.5034L5.74767 26.4517L2.88199 23.5859ZM1.92661 27.4071L2.36344 25.6599L3.67373 26.9702L1.92661 27.4071Z" fill="#252526" stroke="#252526" stroke-width="0.5"/>
<path d="M1.75031 31.3332L1.75031 31.333C1.75047 31.09 1.84715 30.857 2.01908 30.6852C2.19101 30.5134 2.4241 30.4169 2.66713 30.417C2.66715 30.417 2.66717 30.417 2.66719 30.417M1.75031 31.3332L2.66719 30.417M1.75031 31.3332C1.75028 31.4536 1.77397 31.5728 1.82004 31.6841M1.75031 31.3332L1.82004 31.6841M2.66719 30.417H31.3329M2.66719 30.417H31.3329M31.3329 30.417C31.333 30.417 31.333 30.417 31.333 30.417C31.576 30.4169 31.8091 30.5134 31.9811 30.6852C32.153 30.857 32.2497 31.09 32.2498 31.333V31.3332C32.2499 31.4536 32.2262 31.5728 32.1801 31.6841C32.134 31.7953 32.0665 31.8964 31.9813 31.9816C31.8962 32.0667 31.7951 32.1342 31.6839 32.1803C31.5726 32.2264 31.4534 32.2501 31.333 32.25L31.3329 30.417ZM1.82004 31.6841C1.86611 31.7953 1.93364 31.8964 2.01879 31.9816M1.82004 31.6841L2.01879 31.9816M2.01879 31.9816C2.10393 32.0667 2.20502 32.1342 2.31628 32.1803M2.01879 31.9816L2.31628 32.1803M2.31628 32.1803C2.42751 32.2264 2.54673 32.2501 2.66713 32.25M2.31628 32.1803L2.66713 32.25M2.66713 32.25C2.66715 32.25 2.66717 32.25 2.66719 32.25M2.66713 32.25H2.66719M2.66719 32.25H31.3329H2.66719Z" fill="#252526" stroke="#252526" stroke-width="0.5"/>
<path d="M30.6848 20.0185L30.6848 20.0185C30.8515 19.8519 31.0759 19.7559 31.3114 19.7504L30.6848 20.0185ZM30.6848 20.0185L26 24.7034M30.6848 20.0185L26 24.7034M26 24.7034L23.9814 22.6853C23.8963 22.6001 23.7952 22.5326 23.684 22.4865C23.5727 22.4404 23.4535 22.4167 23.3331 22.4167C23.2127 22.4167 23.0934 22.4404 22.9822 22.4865C22.8709 22.5326 22.7699 22.6001 22.6847 22.6853C22.5996 22.7704 22.5321 22.8715 22.486 22.9827C22.4399 23.0939 22.4162 23.2131 22.4162 23.3336C22.4162 23.454 22.4399 23.5732 22.486 23.6845C22.5321 23.7957 22.5997 23.8968 22.6848 23.9819L25.3514 26.6486C25.3514 26.6486 25.3514 26.6486 25.3515 26.6486C25.4366 26.7337 25.5376 26.8013 25.6489 26.8473C25.7601 26.8934 25.8793 26.9172 25.9997 26.9172C26.1202 26.9172 26.2394 26.8934 26.3506 26.8473C26.4619 26.8013 26.5629 26.7337 26.648 26.6486C26.648 26.6486 26.6481 26.6486 26.6481 26.6486L31.9813 21.3152L26 24.7034ZM31.6739 19.8158C31.789 19.8618 31.8936 19.9308 31.9813 20.0185L31.6739 19.8158ZM31.6739 19.8158C31.5588 19.7697 31.4355 19.7474 31.3116 19.7504L31.6739 19.8158ZM32.1801 20.3159C32.1341 20.2047 32.0665 20.1036 31.9813 20.0185L31.9814 21.3151C32.0665 21.23 32.1341 21.129 32.1801 21.0177C32.2262 20.9065 32.25 20.7873 32.25 20.6668C32.25 20.5464 32.2262 20.4272 32.1801 20.3159Z" fill="#252526" stroke="#252526" stroke-width="0.5"/>
</g>
<defs>
<clipPath id="clip0_1239_4489">
<rect width="32" height="32" fill="white"/>
</clipPath>
</defs>
</svg>
