<svg width="32" height="32" viewBox="0 0 32 32" fill="none" xmlns="http://www.w3.org/2000/svg">
<path d="M16 16C16 16.863 16.2815 17.7067 16.8089 18.4243C17.3364 19.1419 18.086 19.7012 18.9631 20.0315C19.8402 20.3617 20.8053 20.4482 21.7364 20.2798C22.6675 20.1114 23.5228 19.6958 24.1941 19.0856C24.8654 18.4753 25.3226 17.6978 25.5078 16.8513C25.693 16.0048 25.5979 15.1275 25.2346 14.3301C24.8713 13.5328 24.2561 12.8513 23.4667 12.3718C22.6774 11.8923 21.7494 11.6364 20.8 11.6364C19.527 11.6364 18.3061 12.0961 17.4059 12.9144C16.5057 13.7328 16 14.8427 16 16ZM22.4 16C22.4 16.2877 22.3062 16.5689 22.1304 16.8081C21.9545 17.0473 21.7047 17.2337 21.4123 17.3438C21.1199 17.4539 20.7982 17.4827 20.4879 17.4266C20.1775 17.3705 19.8924 17.2319 19.6686 17.0285C19.4449 16.8251 19.2925 16.5659 19.2307 16.2838C19.169 16.0016 19.2007 15.7092 19.3218 15.4434C19.4429 15.1776 19.648 14.9504 19.9111 14.7906C20.1742 14.6308 20.4836 14.5455 20.8 14.5455C21.2243 14.5455 21.6313 14.6987 21.9314 14.9715C22.2314 15.2443 22.4 15.6142 22.4 16ZM12.336 17.0327C12.4817 16.8944 12.5958 16.7313 12.672 16.5527C12.7566 16.3786 12.8004 16.1904 12.8004 16C12.8004 15.8096 12.7566 15.6214 12.672 15.4473C12.5958 15.2687 12.4817 15.1056 12.336 14.9673L8.736 11.6364C8.42623 11.3548 8.00608 11.1965 7.568 11.1965C7.12991 11.1965 6.70977 11.3548 6.4 11.6364C6.09023 11.918 5.9162 12.2999 5.9162 12.6982C5.9162 13.0964 6.09023 13.4784 6.4 13.76L7.344 14.5455L1.6 14.5455C1.17565 14.5455 0.768687 14.6987 0.468628 14.9715C0.16857 15.2443 -7.16245e-07 15.6142 -6.99382e-07 16C-6.8252e-07 16.3858 0.16857 16.7557 0.468628 17.0285C0.768687 17.3013 1.17565 17.4545 1.6 17.4545L7.344 17.4545L6.4 18.24C6.09023 18.5216 5.9162 18.9036 5.9162 19.3018C5.9162 19.7001 6.09023 20.082 6.4 20.3636C6.70977 20.6452 7.12991 20.8035 7.568 20.8035C8.00608 20.8035 8.42623 20.6452 8.736 20.3636L12.336 17.0327ZM20.8 5.81818C20.4835 5.81818 20.1742 5.90349 19.9111 6.06332C19.648 6.22314 19.4429 6.45031 19.3218 6.7161C19.2007 6.98188 19.169 7.27434 19.2307 7.5565C19.2925 7.83865 19.4449 8.09783 19.6686 8.30125C19.8924 8.50467 20.1775 8.6432 20.4879 8.69932C20.7982 8.75545 21.1199 8.72664 21.4123 8.61655C21.7047 8.50646 21.9545 8.32003 22.1304 8.08083C22.3062 7.84163 22.4 7.56041 22.4 7.27273C22.4 6.88696 22.2314 6.51699 21.9314 6.24421C21.6313 5.97143 21.2243 5.81818 20.8 5.81818ZM9.6 4.36364L9.6 8.72727C9.6 9.11304 9.76857 9.48301 10.0686 9.75579C10.3687 10.0286 10.7757 10.1818 11.2 10.1818C11.6243 10.1818 12.0313 10.0286 12.3314 9.75579C12.6314 9.48301 12.8 9.11304 12.8 8.72727L12.8 4.36364C12.8 3.97787 12.9686 3.6079 13.2686 3.33512C13.5687 3.06234 13.9757 2.90909 14.4 2.90909L27.2 2.90909C27.6243 2.90909 28.0313 3.06234 28.3314 3.33512C28.6314 3.6079 28.8 3.97787 28.8 4.36364L28.8 27.6364C28.8 28.0221 28.6314 28.3921 28.3314 28.6649C28.0313 28.9377 27.6243 29.0909 27.2 29.0909L14.4 29.0909C13.9757 29.0909 13.5687 28.9377 13.2686 28.6649C12.9686 28.3921 12.8 28.0221 12.8 27.6364L12.8 23.2727C12.8 22.887 12.6314 22.517 12.3314 22.2442C12.0313 21.9714 11.6243 21.8182 11.2 21.8182C10.7757 21.8182 10.3687 21.9714 10.0686 22.2442C9.76857 22.517 9.6 22.887 9.6 23.2727L9.6 27.6364C9.6 28.7937 10.1057 29.9036 11.0059 30.7219C11.9061 31.5403 13.127 32 14.4 32L27.2 32C28.473 32 29.6939 31.5403 30.5941 30.7219C31.4943 29.9036 32 28.7937 32 27.6364L32 4.36364C32 3.20633 31.4943 2.09642 30.5941 1.27808C29.6939 0.459738 28.473 6.62752e-07 27.2 7.18399e-07L14.4 1.2779e-06C13.127 1.33355e-06 11.9061 0.459739 11.0059 1.27808C10.1057 2.09642 9.6 3.20633 9.6 4.36364ZM20.8 26.1818C21.1165 26.1818 21.4258 26.0965 21.6889 25.9367C21.952 25.7769 22.1571 25.5497 22.2782 25.2839C22.3993 25.0181 22.431 24.7257 22.3693 24.4435C22.3075 24.1614 22.1551 23.9022 21.9314 23.6988C21.7076 23.4953 21.4225 23.3568 21.1121 23.3007C20.8018 23.2446 20.4801 23.2734 20.1877 23.3834C19.8953 23.4935 19.6455 23.68 19.4696 23.9192C19.2938 24.1584 19.2 24.4396 19.2 24.7273C19.2 25.113 19.3686 25.483 19.6686 25.7558C19.9687 26.0286 20.3757 26.1818 20.8 26.1818Z" fill="#5FB572"/>
</svg>
