<svg width="32" height="32" viewBox="0 0 32 32" fill="none" xmlns="http://www.w3.org/2000/svg">
<path d="M15.6836 11.5927L17.32 11.1345L18.0109 13.5963L16.3636 14.0582L15.6836 11.5927ZM12.7273 15.2L12 12.7563L13.6291 12.2582L14.3782 14.7018L12.7273 15.2Z" fill="black"/>
<path d="M30.2 12.4982L29.2509 12.0727L28.8873 12.2073C28.2076 12.4476 27.4919 12.5705 26.7709 12.5709C24.12 12.5709 22.1346 10.7091 21.9418 8.97091L21.88 8.40727L20.9527 8L20.5891 8.10545C20.4873 8.13455 10.5237 11.1018 6.63639 12.2982C2.11275 13.68 1.8182 18.2655 1.79639 18.4582V24H30.2073V13.1455V12.4982H30.2ZM7.23275 14.1818C10.3964 13.2073 17.6109 11.0545 20.2109 10.28C21.0655 12.7273 23.7709 14.5455 26.76 14.5455C27.2476 14.5445 27.7342 14.5019 28.2146 14.4182V18.5455H3.78184C3.8182 18.1382 4.19639 15.1164 7.23275 14.1818ZM3.7782 22.0218V20.5127H28.2218V22.0255L3.7782 22.0218Z" fill="#010200"/>
</svg>
