<svg width="32" height="32" viewBox="0 0 32 32" fill="none" xmlns="http://www.w3.org/2000/svg">
<path d="M31.4532 6H10.4617C10.3167 6 10.1777 6.064 10.0751 6.17791C9.97259 6.29183 9.91498 6.44633 9.91498 6.60743V15.5425H0.546752C0.401744 15.5425 0.262676 15.6065 0.16014 15.7205C0.0576041 15.8344 0 15.9889 0 16.15V31.3926C0 31.5537 0.0576041 31.7082 0.16014 31.8221C0.262676 31.936 0.401744 32 0.546752 32H19.5566C19.7016 32 19.8407 31.936 19.9432 31.8221C20.0458 31.7082 20.1034 31.5537 20.1034 31.3926V18.9851H31.4532C31.5983 18.9851 31.7373 18.9211 31.8399 18.8072C31.9424 18.6933 32 18.5388 32 18.3777V6.60743C32 6.44633 31.9424 6.29183 31.8399 6.17791C31.7373 6.064 31.5983 6 31.4532 6ZM19.0098 30.7851H1.0935V16.7574H19.0099L19.0098 30.7851ZM17.667 12.4926C17.667 11.2309 19.1402 10.2081 20.9575 10.2081C22.7748 10.2081 24.248 11.2309 24.248 12.4926C24.248 13.7542 22.7748 14.777 20.9575 14.777C19.1402 14.777 17.667 13.7542 17.667 12.4926ZM30.9065 17.7703H20.1033V16.7275H27.4786C27.5423 16.7275 27.6054 16.7132 27.664 16.6854C27.7226 16.6576 27.7755 16.6169 27.8196 16.5658C27.8636 16.5147 27.8979 16.4542 27.9204 16.3879C27.9429 16.3217 27.9531 16.2511 27.9503 16.1804C27.9495 16.1572 27.9487 16.1339 27.9487 16.1104C27.9493 15.6741 28.1054 15.2557 28.3829 14.9468C28.6603 14.6379 29.0365 14.4636 29.4293 14.4619C29.5544 14.4616 29.6742 14.4062 29.7625 14.3078C29.8509 14.2095 29.9005 14.0762 29.9005 13.9373V10.9425C29.9005 10.8036 29.8509 10.6703 29.7625 10.572C29.6742 10.4736 29.5544 10.4182 29.4293 10.4179C29.0382 10.4158 28.6636 10.2426 28.3866 9.9359C28.1095 9.62921 27.9523 9.21365 27.9489 8.77915C27.9482 8.64056 27.8981 8.50791 27.8097 8.4102C27.7212 8.31248 27.6015 8.25763 27.4768 8.25763H14.5099C14.3852 8.25763 14.2655 8.31248 14.177 8.41021C14.0885 8.50793 14.0385 8.64059 14.0377 8.77919C14.0346 9.21439 13.877 9.63062 13.5992 9.93747C13.3214 10.2443 12.9458 10.417 12.5541 10.418C12.541 10.418 12.528 10.4174 12.515 10.4169L12.5028 10.4164C12.4394 10.414 12.3763 10.4258 12.3172 10.4511C12.2581 10.4764 12.2041 10.5146 12.1586 10.5636C12.113 10.6125 12.0768 10.6711 12.0521 10.7359C12.0273 10.8007 12.0146 10.8703 12.0146 10.9407V13.9391C12.0146 14.0095 12.0273 14.0791 12.0521 14.1439C12.0768 14.2087 12.113 14.2673 12.1586 14.3163C12.2041 14.3652 12.2581 14.4034 12.3172 14.4287C12.3763 14.454 12.4394 14.4658 12.5028 14.4634L12.515 14.4629C12.528 14.4624 12.541 14.4618 12.5541 14.4618C12.8579 14.4622 13.1543 14.566 13.4034 14.7592C13.6525 14.9524 13.8423 15.2258 13.9473 15.5425H11.0085V7.21486H30.9065V17.7703Z" fill="black" stroke={color} strokeWidth="0.5"/>
<path d="M8.44026 27.0214C8.52374 27.0746 8.61839 27.1024 8.71463 27.102C8.81087 27.1015 8.9053 27.0728 8.98838 27.0189L13.1791 24.2957C13.2615 24.2422 13.3298 24.1656 13.3773 24.0736C13.4248 23.9816 13.4498 23.8774 13.4498 23.7714C13.4498 23.6653 13.4248 23.5611 13.3773 23.4691C13.3298 23.3771 13.2615 23.3006 13.1791 23.247L8.98838 20.5239C8.90531 20.4699 8.81088 20.4413 8.71465 20.4408C8.61841 20.4404 8.52377 20.4681 8.44029 20.5213C8.35681 20.5745 8.28745 20.6513 8.23922 20.7438C8.19098 20.8363 8.16559 20.9413 8.16559 21.0482V26.4945C8.16559 26.6014 8.19098 26.7065 8.23921 26.799C8.28744 26.8915 8.35679 26.9682 8.44026 27.0214Z" fill="black" stroke={color} strokeWidth="0.5"/>
<path d="M3.64337 26.7224H2.54987V29.029H3.64337V26.7224Z" fill="black" stroke={color} strokeWidth="0.5"/>
<path d="M3.64337 22.6218H2.54987V24.9284H3.64337V22.6218Z" fill="black" stroke={color} strokeWidth="0.5"/>
<path d="M3.64337 18.5214H2.54987V20.8279H3.64337V18.5214Z" fill="black" stroke={color} strokeWidth="0.5"/>
<path d="M17.5536 22.6218H16.4601V24.9284H17.5536V22.6218Z" fill="black" stroke={color} strokeWidth="0.5"/>
<path d="M17.5536 18.5214H16.4601V20.8279H17.5536V18.5214Z" fill="black" stroke={color} strokeWidth="0.5"/>
<path d="M17.5536 26.7224H16.4601V29.029H17.5536V26.7224Z" fill="black" stroke={color} strokeWidth="0.5"/>
</svg>
