<svg width="32" height="32" viewBox="0 0 32 32" fill="none" xmlns="http://www.w3.org/2000/svg">
<path d="M17.7778 7.3669C17.7778 7.82537 17.5905 8.26505 17.2571 8.58923C16.9237 8.91342 16.4715 9.09554 16 9.09554C15.5285 9.09554 15.0763 8.91342 14.7429 8.58923C14.4095 8.26505 14.2222 7.82537 14.2222 7.3669C14.2222 6.90844 14.4095 6.46875 14.7429 6.14457C15.0763 5.82039 15.5285 5.63826 16 5.63826C16.4715 5.63826 16.9237 5.82039 17.2571 6.14457C17.5905 6.46875 17.7778 6.90844 17.7778 7.3669ZM17.8347 0.581996C17.302 0.203807 16.6595 0 16 0C15.3405 0 14.698 0.203807 14.1653 0.581996L0.972444 9.94257C-0.766222 11.1751 0.131556 13.8493 2.28089 13.8493H2.66667V23.8754C1.8639 24.2737 1.18999 24.8801 0.719394 25.6275C0.248799 26.3749 -0.000167134 27.2342 8.41792e-08 28.1106V30.7035C8.41792e-08 31.4174 0.597333 32 1.33333 32H30.6667C31.0203 32 31.3594 31.8634 31.6095 31.6203C31.8595 31.3771 32 31.0474 32 30.7035V28.1106C32.0002 27.2342 31.7512 26.3749 31.2806 25.6275C30.81 24.8801 30.1361 24.2737 29.3333 23.8754V13.8493H29.7191C31.8702 13.8493 32.7644 11.1751 31.0276 9.94257L17.8347 0.580268V0.581996ZM15.7369 2.67538C15.813 2.62129 15.9048 2.59215 15.9991 2.59215C16.0934 2.59215 16.1852 2.62129 16.2613 2.67538L28.3556 11.2563H3.64444L15.7387 2.67538H15.7369ZM26.6667 13.8493V23.3568H23.1111V13.8493H26.6667ZM20.4444 13.8493V23.3568H17.3333V13.8493H20.4444ZM14.6667 13.8493V23.3568H11.5556V13.8493H14.6667ZM4.88889 25.9498H27.1111C28.3378 25.9498 29.3333 26.9178 29.3333 28.1106V29.407H2.66667V28.1106C2.66667 26.9178 3.66222 25.9498 4.88889 25.9498ZM5.33333 23.3568V13.8493H8.88889V23.3568H5.33333Z" fill="#5FB572"/>
</svg>
