<svg width="32" height="32" viewBox="0 0 32 32" fill="none" xmlns="http://www.w3.org/2000/svg">
<path fill-rule="evenodd" clip-rule="evenodd" d="M1.60314 17.7772C0.131466 17.7772 -0.559583 15.7558 0.540977 14.6713L14.9378 0.448494C15.2306 0.159572 15.6085 0 16 0C16.3915 0 16.7694 0.159572 17.0622 0.448494L31.459 14.6713C32.5596 15.7558 31.8685 17.7772 30.3969 17.7772H28.7972V30.2222C28.7972 30.6937 28.6287 31.1459 28.3287 31.4793C28.0287 31.8127 27.6218 32 27.1976 32H4.80245C4.37819 32 3.97131 31.8127 3.67132 31.4793C3.37133 31.1459 3.2028 30.6937 3.2028 30.2222V17.7772H1.60314ZM11.201 28.4443V19.555C11.201 19.0835 11.3696 18.6313 11.6696 18.2979C11.9696 17.9645 12.3764 17.7772 12.8007 17.7772H19.1993C19.6236 17.7772 20.0304 17.9645 20.3304 18.2979C20.6304 18.6313 20.799 19.0835 20.799 19.555V28.4443H25.5979V15.9993C25.5979 15.6831 25.6737 15.3725 25.8177 15.0997C25.9617 14.8268 26.1685 14.6016 26.4169 14.4473L16 4.15353L5.58308 14.4473C5.83147 14.6016 6.03833 14.8268 6.1823 15.0997C6.32627 15.3725 6.40214 15.6831 6.4021 15.9993V28.4443H11.201ZM14.4004 28.4443V21.3329H17.5997V28.4443H14.4004Z" fill="#5FB572"/>
</svg>
